<?xml version="1.0" encoding="UTF-8" standalone="no"?>
<!-- Created with Inkscape (http://www.inkscape.org/) -->

<svg
   version="1.1"
   id="svg895"
   width="108.19516"
   height="84.329666"
   viewBox="0 0 108.19516 84.329666"
   sodipodi:docname="3569d0f1e7d83635200542b5a3cc809947b45a75_original.jpeg"
   xmlns:inkscape="http://www.inkscape.org/namespaces/inkscape"
   xmlns:sodipodi="http://sodipodi.sourceforge.net/DTD/sodipodi-0.dtd"
   xmlns="http://www.w3.org/2000/svg"
   xmlns:svg="http://www.w3.org/2000/svg">
  <defs
     id="defs899" />
  <sodipodi:namedview
     id="namedview897"
     pagecolor="#ffffff"
     bordercolor="#000000"
     borderopacity="0.25"
     inkscape:showpageshadow="2"
     inkscape:pageopacity="0.0"
     inkscape:pagecheckerboard="0"
     inkscape:deskcolor="#d1d1d1"
     showgrid="false" />
  <g
     inkscape:groupmode="layer"
     inkscape:label="Image"
     id="g901"
     transform="translate(-26.476368,-36.521236)">
    <path
       style="fill:none;stroke:#000000;stroke-width:0.238212px;stroke-linecap:butt;stroke-linejoin:miter;stroke-opacity:1"
       d="m 43.558167,39.252588 -7.660127,5.271976 -1.918591,3.627486 -1.752436,6.067577 0.676192,7.419717 1.331695,3.757966 5.070159,6.009141 1.397356,1.015462 V 73.3853 l -3.653389,2.477971 -1.256179,1.80874 0.344094,1.837832 -0.154892,4.910125 -0.527734,1.877091 -2.272776,1.954964 -3.354936,2.039328 -0.833223,3.393397 -1.012081,2.299396 -0.863731,0.967985 -0.520159,2.47453 0.435063,2.789851 1.09763,3.81144 1.098183,3.06912 -0.303703,2.34759 -0.213358,5.91595 0.121499,2.44902 1.778761,0.91843 4.680381,-0.59788 3.214266,-0.86504 1.794419,-1.00156 0.118887,-2.68634 -0.62283,-2.1264 -0.645029,-1.39767 -1.284394,-1.45687 3.424069,-2.22351 0.578108,-0.95001 0.145793,-1.52481 6.016013,-2.84288 5.50998,-1.48158 4.816145,-0.63777 1.564194,-0.0629 3.923426,2.9578 2.624033,1.55964 1.699601,0.76676 h 1.124841 l 2.038124,-3.18158 1.334001,-0.36975 8.39238,1.11851 6.9528,0.1892 4.259432,-0.57629 3.222363,-0.17195 2.207594,4.81151 3.551019,5.54048 4.9627,3.52141 3.263,0.25598 3.90317,-2.1633 0.43657,-1.42936 v -1.9104 l -0.91853,-1.83851 -0.9355,-0.68693 1.07481,-2.56973 -0.54665,-1.44208 -1.73658,-2.91596 -1.8796,-0.87826 -1.82759,-0.96988 -0.12144,-1.351895 5.40071,-3.932393 5.53397,-5.072812 2.06684,-4.52001 1.00493,-4.036994 -0.58601,-4.318122 -0.22211,-2.549366 2.4463,-0.50257 1.03225,-0.989193 1.25348,-1.820768 -0.14398,-1.274952 -1.80876,-5.209576 -1.01033,-3.612236 4.91144,0.05182 3.6104,-2.894374 2.33226,-3.271652 1.56529,-4.518696 0.22492,-0.771624 -1.78978,-1.728955 -4.5709,-2.568146 -1.43978,-0.760968 -3.18861,-0.432121 -0.77427,-2.837382 -0.71216,-2.217917 -1.91754,-1.689005 -1.97463,-0.501913 -1.64072,0.388381 -0.71295,-0.06686 -1.71951,-0.838965 -1.98784,0.03911 -3.52379,0.738157 -2.54157,0.709311 -1.12641,1.208027 -1.09238,2.892417 -1.13718,0.82611 -0.64083,1.794338 -1.30354,2.618732 -1.243619,3.99781 -1.728376,4.868604 -0.941082,3.318195 -0.478397,1.354601 -2.828982,0.571858 -0.991365,1.116166 -1.126072,1.239476 -3.456292,2.327532 -2.431684,1.208463 -4.614844,1.352693 -4.428814,1.102852 -4.927952,0.940887 -2.829533,0.245972 -7.652627,0.126071 -7.130771,-1.356673 -7.206547,-1.107359 -3.001795,-1.440075 -4.816843,-6.203891 -1.423182,-8.321323 1.70776,-4.537251 2.998131,-4.674736 2.249136,-2.806713 0.720449,-0.993948 z"
       id="path1078" />
  </g>
</svg>
