<?xml version="1.0" encoding="UTF-8" standalone="no"?>
<!-- Created with Inkscape (http://www.inkscape.org/) -->

<svg
   version="1.1"
   id="svg244"
   width="108.2221"
   height="84.371384"
   viewBox="0 0 108.2221 84.371384"
   xmlns="http://www.w3.org/2000/svg"
   xmlns:svg="http://www.w3.org/2000/svg">
  <defs
     id="defs248" />
  <g
     id="g250"
     transform="translate(-26.233192,-25.474033)">
    <path
       style="fill:none;stroke:#000000;stroke-width:0.270863px;stroke-linecap:butt;stroke-linejoin:miter;stroke-opacity:1"
       d="m 26.456745,54.458105 0.121504,-2.906399 1.707619,-7.891712 0.322902,-1.397172 -0.0623,-0.770183 -0.383478,-0.866047 -0.110784,-0.645577 0.03154,-1.821033 0.453568,-1.250856 0.538322,-1.707144 0.623699,-1.397981 -2.945412,-2.947248 -0.363134,-1.15441 0.397918,-0.305881 2.415429,-0.0074 5.698642,0.697799 1.172751,-1.143514 2.578288,-1.112038 2.803333,-0.764618 2.475704,-0.03945 2.12249,0.187463 2.38617,-0.01521 3.179541,-0.407789 3.341312,-0.740788 0.993351,-0.441453 h 0.350648 l -0.124544,2.412325 -0.544606,0.875454 -0.399549,0.844525 -0.01922,0.291514 8.46755,0.10862 0.784385,0.261032 1.805469,1.150067 1.266887,1.839798 -1.090563,0.546343 -0.664832,1.07473 -0.06308,1.382757 0.184097,1.136263 0.963641,1.469144 2.183066,0.78334 1.295166,-0.101964 0.202026,0.5141 -0.525442,1.758489 0.03782,2.018123 0.533328,1.001837 1.258838,0.908382 2.73177,1.169231 2.298047,0.297251 1.000961,-0.426083 0.777367,-0.18974 -0.12967,1.295174 -0.629459,0.68342 -0.529323,0.993068 -1.12022,0.122316 -0.761846,-0.213166 -0.206884,0.140471 0.427754,0.556514 2.193569,0.838894 3.886701,0.689882 3.892731,0.286602 3.656905,0.01165 2.439531,-0.129206 2.360125,-0.06192 2.667424,-0.366512 1.955845,-0.354303 0.470568,-0.136332 3.032289,0.0084 2.33601,0.322642 2.24185,0.717493 1.06282,0.598358 1.35394,0.740014 1.59255,0.897347 1.25232,1.355026 0.36101,0.417233 2.87455,-1.27999 2.29895,-1.151678 2.48562,-0.720648 2.77053,-0.173265 1.66968,0.195342 1.81404,0.59988 2.38031,1.287139 1.72633,1.609345 1.5321,1.542376 0.76645,1.724101 0.65761,2.055979 v 1.551801 l 0.0631,1.431681 -0.13991,1.229714 -1.25242,3.992697 -1.08161,2.986727 -0.47868,2.218127 -0.46452,2.100384 -0.098,1.95804 0.099,2.059415 0.47661,1.283732 0.5274,1.259126 0.44417,0.502817 0.97867,0.763668 0.96919,0.61571 0.71758,0.462537 -2.35434,1.568775 -1.72672,0.574544 -1.78321,0.190403 -2.30786,-0.358589 -1.9213,-1.191654 -1.78117,-1.390034 -1.22987,-1.474204 -1.17337,-2.246954 -0.75354,-3.406102 0.19777,-4.34591 0.48307,-2.342222 1.21719,-3.708463 1.1913,-3.772445 -0.5602,-2.1929 -0.21667,-0.78675 -1.39176,-0.825117 -1.1216,-0.371084 -2.18255,-0.123106 -1.56953,0.119856 -0.54561,0.21019 0.6679,1.873137 0.57471,2.17157 -0.38781,2.230484 -0.36627,1.913728 -0.82841,2.528369 -1.12772,2.106824 -1.92453,2.209098 -1.73542,1.710396 -0.83075,1.415887 -0.18191,1.184425 0.12146,1.362169 3.91658,7.120738 -0.70182,0.877841 -1.36539,1.020208 0.14855,1.771918 -1.13007,2.84052 -0.487,1.896852 -0.53482,2.004147 -0.77114,2.383551 -2.5396,2.19614 -1.08323,1.35584 -0.42949,1.57344 -0.19578,0.62741 -1.6314,0.74893 -2.055755,0.003 -2.905361,-0.45103 -0.656482,0.71595 -2.301447,1.24266 -1.252249,0.50357 -0.872492,0.17807 -0.237071,-0.27314 -0.02154,-5.90129 0.613831,-3.4374 1.071805,-2.429786 0.273518,-0.312387 10.226913,-10.117323 -5.740118,-7.652833 -3.395686,-4.060056 -0.72333,-0.49709 -6.108499,2.033209 -4.170051,1.028019 -3.884608,0.610013 -3.855768,-0.231987 -2.378384,-0.443339 -7.17484,-2.417727 -0.503791,0.400561 -0.142621,1.411656 -0.02949,5.510962 -0.245452,5.084006 -0.0138,3.401078 0.84101,5.968334 0.03678,2.66425 -0.268613,0.73006 -2.645447,2.70796 -0.474276,1.33241 -0.163012,1.09426 0.224689,1.05939 -0.31904,0.98336 -1.351642,1.39422 -0.871115,0.18773 -5.401934,-0.49826 -1.2785,-0.85363 -0.131695,-0.33824 3.633665,-4.58681 2.114751,-2.03015 1.049453,-2.878193 0.467415,-3.751868 -0.0093,-3.246796 -0.681437,-5.471091 -1.545591,-6.594145 -0.906774,-1.844827 -0.127669,-0.136275 -1.864001,0.564414 -2.28889,1.235765 -2.374435,1.862757 -1.462469,1.341838 -0.09545,0.571355 -0.404973,5.270594 0.414014,1.074275 1.887262,4.50238 1.886036,3.415397 0.852593,0.641896 1.232984,0.747072 0.112473,1.935992 -1.311975,3.12293 -0.605299,2.00784 -0.576109,-0.1488 -3.678845,-4.92629 -1.619817,-2.917575 -1.746406,-3.837671 -1.694749,-6.666783 -0.73114,-4.960357 v -1.485911 l 3.49128,-4.35196 3.593716,-3.762077 1.287126,-1.624256 -0.0042,-0.370355 -2.420825,-3.333402 -0.808192,-2.456931 -0.152823,-3.950112 0.123456,-4.093377 -0.70997,-2.907832 -2.165676,-4.614306 -1.38965,-2.517206 -0.894863,-0.770472 -0.963609,-0.526158 -0.846315,-0.03225 -1.078209,1.557236 -1.093033,1.059365 -1.623106,3.113391 -1.117767,1.676678 -1.121404,1.710239 -0.806371,1.395142 -0.223633,0.965146 -0.943534,1.036179 -1.382948,0.492011 -1.603947,0.0096 -1.783961,-1.010286 -1.772466,-1.774684 z"
       id="path444" />
  </g>
</svg>
